<svg width="64" height="31" viewBox="0 0 64 31" fill="none" xmlns="http://www.w3.org/2000/svg">
<path d="M7.048 10.4297C5.28765 13.3804 5.28764 17.011 7.04797 19.9618C8.81077 22.9162 12.0807 24.7521 15.6365 24.7521C18.7315 24.7521 21.2352 23.5121 23.5298 21.5177C25.8538 19.4978 27.903 16.7596 30.0928 13.8244L30.0929 13.8242C30.1343 13.7688 30.1756 13.7133 30.2171 13.6578C34.6738 7.68626 39.6639 0.999977 48.3634 0.999977C53.5765 0.999977 58.4097 3.6914 61.0319 8.08566L61.0319 8.08571C63.656 12.4837 63.6561 17.9077 61.0319 22.3054C58.5787 26.4173 54.1891 29.0381 49.3634 29.358V29.3911H48.3634C44.469 29.3911 40.74 27.9022 37.2977 25.0607C36.8189 24.6657 36.5141 24.0959 36.4626 23.4724C36.4111 22.8478 36.6197 22.2356 37.0296 21.7694L37.0303 21.7685C37.8786 20.8057 39.353 20.697 40.3387 21.5103C42.9922 23.699 45.6882 24.7517 48.3635 24.7517C51.9193 24.7517 55.1892 22.9158 56.952 19.9614C58.7124 17.0106 58.7124 13.3801 56.952 10.4293M7.048 10.4297L6.19009 9.91787L7.048 10.4297ZM7.048 10.4297C8.8108 7.47525 12.0807 5.63941 15.6365 5.63941C18.3119 5.63941 21.0079 6.6917 23.6613 8.88081C24.647 9.69411 26.1214 9.58537 26.9697 8.62255L26.97 8.62222C27.8346 7.64005 27.7071 6.1597 26.7026 5.33073C23.2602 2.48898 19.5311 1.00003 15.6366 1.00003C10.4229 1.00003 5.58974 3.69141 2.96813 8.08571C0.343946 12.4834 0.343975 17.9073 2.96811 22.3054L2.96813 22.3054C5.59035 26.6997 10.4235 29.3911 15.6366 29.3911C24.3361 29.3911 29.3263 22.7048 33.7829 16.7333L33.9071 16.5669L33.9073 16.5667C36.097 13.6315 38.1462 10.8933 40.4702 8.87336C42.7648 6.87897 45.2685 5.639 48.3635 5.639C51.9193 5.639 55.1892 7.4749 56.952 10.4293M56.952 10.4293L57.7992 9.92386L56.952 10.4293Z" fill="white" stroke="white" stroke-width="2"/>
</svg>
