<svg width="40" height="40" viewBox="0 0 40 40" fill="none" xmlns="http://www.w3.org/2000/svg">
<rect x="0.5" y="0.5" width="39" height="39" rx="19.5" fill="black" stroke="black"/>
<g clip-path="url(#clip0_363_80)">
<path fill-rule="evenodd" clip-rule="evenodd" d="M30.4579 15.0262L28.2641 12.7724C28.1174 12.6216 27.8947 12.5774 27.7049 12.6632C27.6088 12.7074 27.4873 12.7438 27.3254 12.7906L27.3254 12.7906C26.7257 12.9674 25.8174 13.2351 24.8027 14.2776C23.7881 15.32 23.5288 16.2486 23.3567 16.8647L23.3554 16.8693C23.239 17.2853 23.2112 17.3815 22.9379 17.6648C22.6654 17.9474 22.5665 17.9766 22.1645 18.0954L22.1612 18.0963C21.5615 18.2731 20.6557 18.5409 19.6385 19.5833C18.6249 20.6221 18.3651 21.5525 18.193 22.1687L18.1912 22.1751C18.1735 22.2375 18.1583 22.2921 18.1457 22.3415L12.9232 16.9733C12.7259 16.7706 12.4045 16.7706 12.2072 16.9733L9.93499 19.3103C9.73763 19.5131 9.73763 19.8433 9.93499 20.046L10.31 20.4314C10.3158 20.4379 10.3217 20.4443 10.3279 20.4506L14.8757 25.1231C14.8932 25.1506 14.9152 25.1757 14.9373 25.1984L15.3087 25.58C15.3157 25.5879 15.323 25.5956 15.3302 25.603L16.3797 26.6813C17.1817 27.371 18.644 28.027 20.1839 27.0424C20.4538 26.8543 20.7377 26.6183 21.0308 26.3179C22.0455 25.2754 22.3048 24.3468 22.4768 23.7307L22.4781 23.7261C22.5945 23.3128 22.6223 23.214 22.8956 22.9306C23.1714 22.6473 23.2676 22.6187 23.6724 22.4991C24.2721 22.3223 25.1779 22.0546 26.1951 21.0121C27.2097 19.9697 27.4703 19.0365 27.6424 18.4204L27.6424 18.4203C27.7588 18.007 27.7866 17.9082 28.0599 17.6249C28.3357 17.3415 28.4318 17.3129 28.8366 17.1933L28.8437 17.1913C29.344 17.0433 30.0245 16.842 30.8077 16.2107C30.9216 16.1197 30.9924 15.9819 31 15.8338C31.0101 15.6856 30.9545 15.54 30.8533 15.436L30.8507 15.4308L30.4588 15.0281L30.4579 15.0262Z" fill="white"/>
</g>
<defs>
<clipPath id="clip0_363_80">
<rect width="22" height="17" fill="white" transform="translate(9 11)"/>
</clipPath>
</defs>
</svg>
